<mxfile host="65bd71144e">
    <diagram id="_jyA74UNMsJ7Md-XdbSS" name="第3頁">
        <mxGraphModel dx="1720" dy="836" grid="1" gridSize="10" guides="1" tooltips="1" connect="1" arrows="1" fold="1" page="1" pageScale="1" pageWidth="827" pageHeight="1169" background="#ffffff" math="0" shadow="0">
            <root>
                <mxCell id="CLgSFcVppMuLd8jpVAgE-0"/>
                <mxCell id="CLgSFcVppMuLd8jpVAgE-1" parent="CLgSFcVppMuLd8jpVAgE-0"/>
                <mxCell id="ASx-Sw1Rj-6cgDWwaIsj-12" value="Message Queue" style="shape=table;startSize=60;container=1;collapsible=0;childLayout=tableLayout;fontStyle=1;align=center;pointerEvents=1;fontSize=25;fillColor=#dae8fc;strokeColor=#6c8ebf;gradientColor=none;swimlaneFillColor=default;" parent="CLgSFcVppMuLd8jpVAgE-1" vertex="1">
                    <mxGeometry x="90" y="110" width="1460" height="880" as="geometry"/>
                </mxCell>
                <mxCell id="ASx-Sw1Rj-6cgDWwaIsj-299" style="shape=partialRectangle;html=1;whiteSpace=wrap;collapsible=0;dropTarget=0;pointerEvents=0;fillColor=none;top=0;left=0;bottom=0;right=0;points=[[0,0.5],[1,0.5]];portConstraint=eastwest;fontSize=25;" parent="ASx-Sw1Rj-6cgDWwaIsj-12" vertex="1">
                    <mxGeometry y="60" width="1460" height="86" as="geometry"/>
                </mxCell>
                <mxCell id="ASx-Sw1Rj-6cgDWwaIsj-300" value="producer" style="shape=partialRectangle;html=1;whiteSpace=wrap;connectable=0;fillColor=#cce5ff;top=1;left=1;bottom=1;right=1;overflow=hidden;pointerEvents=1;fontSize=25;strokeColor=#36393d;noLabel=0;fontStyle=1" parent="ASx-Sw1Rj-6cgDWwaIsj-299" vertex="1">
                    <mxGeometry width="203" height="86" as="geometry">
                        <mxRectangle width="203" height="86" as="alternateBounds"/>
                    </mxGeometry>
                </mxCell>
                <mxCell id="ASx-Sw1Rj-6cgDWwaIsj-301" value="subject" style="shape=partialRectangle;html=1;whiteSpace=wrap;connectable=0;fillColor=#cce5ff;top=1;left=1;bottom=1;right=1;overflow=hidden;pointerEvents=1;fontSize=25;strokeColor=#36393d;noLabel=0;fontStyle=1" parent="ASx-Sw1Rj-6cgDWwaIsj-299" vertex="1">
                    <mxGeometry x="203" width="283" height="86" as="geometry">
                        <mxRectangle width="283" height="86" as="alternateBounds"/>
                    </mxGeometry>
                </mxCell>
                <mxCell id="ASx-Sw1Rj-6cgDWwaIsj-302" value="consumer" style="shape=partialRectangle;html=1;whiteSpace=wrap;connectable=0;fillColor=#cce5ff;top=1;left=1;bottom=1;right=1;overflow=hidden;pointerEvents=1;fontSize=25;strokeColor=#36393d;noLabel=0;fontStyle=1" parent="ASx-Sw1Rj-6cgDWwaIsj-299" vertex="1">
                    <mxGeometry x="486" width="251" height="86" as="geometry">
                        <mxRectangle width="251" height="86" as="alternateBounds"/>
                    </mxGeometry>
                </mxCell>
                <mxCell id="ASx-Sw1Rj-6cgDWwaIsj-303" value="description" style="shape=partialRectangle;html=1;whiteSpace=wrap;connectable=0;fillColor=#cce5ff;top=1;left=1;bottom=1;right=1;overflow=hidden;pointerEvents=1;fontSize=25;strokeColor=#36393d;noLabel=0;fontStyle=1" parent="ASx-Sw1Rj-6cgDWwaIsj-299" vertex="1">
                    <mxGeometry x="737" width="723" height="86" as="geometry">
                        <mxRectangle width="723" height="86" as="alternateBounds"/>
                    </mxGeometry>
                </mxCell>
                <mxCell id="ASx-Sw1Rj-6cgDWwaIsj-13" value="" style="shape=partialRectangle;html=1;whiteSpace=wrap;collapsible=0;dropTarget=0;pointerEvents=0;fillColor=none;top=0;left=0;bottom=0;right=0;points=[[0,0.5],[1,0.5]];portConstraint=eastwest;fontSize=25;" parent="ASx-Sw1Rj-6cgDWwaIsj-12" vertex="1">
                    <mxGeometry y="146" width="1460" height="86" as="geometry"/>
                </mxCell>
                <mxCell id="ASx-Sw1Rj-6cgDWwaIsj-14" value="todo" style="shape=partialRectangle;html=1;whiteSpace=wrap;connectable=0;fillColor=none;top=0;left=0;bottom=0;right=0;overflow=hidden;pointerEvents=1;fontSize=25;" parent="ASx-Sw1Rj-6cgDWwaIsj-13" vertex="1">
                    <mxGeometry width="203" height="86" as="geometry">
                        <mxRectangle width="203" height="86" as="alternateBounds"/>
                    </mxGeometry>
                </mxCell>
                <mxCell id="ASx-Sw1Rj-6cgDWwaIsj-15" value="Comment-todoCreaeted" style="shape=partialRectangle;html=1;whiteSpace=wrap;connectable=0;fillColor=none;top=0;left=0;bottom=0;right=0;overflow=hidden;pointerEvents=1;fontSize=25;" parent="ASx-Sw1Rj-6cgDWwaIsj-13" vertex="1">
                    <mxGeometry x="203" width="283" height="86" as="geometry">
                        <mxRectangle width="283" height="86" as="alternateBounds"/>
                    </mxGeometry>
                </mxCell>
                <mxCell id="ASx-Sw1Rj-6cgDWwaIsj-16" value="comment" style="shape=partialRectangle;html=1;whiteSpace=wrap;connectable=0;fillColor=none;top=0;left=0;bottom=0;right=0;overflow=hidden;pointerEvents=1;fontSize=25;" parent="ASx-Sw1Rj-6cgDWwaIsj-13" vertex="1">
                    <mxGeometry x="486" width="251" height="86" as="geometry">
                        <mxRectangle width="251" height="86" as="alternateBounds"/>
                    </mxGeometry>
                </mxCell>
                <mxCell id="ASx-Sw1Rj-6cgDWwaIsj-232" value="store todo id, check the todo is exist&amp;nbsp;" style="shape=partialRectangle;html=1;whiteSpace=wrap;connectable=0;fillColor=none;top=0;left=0;bottom=0;right=0;overflow=hidden;pointerEvents=1;fontSize=25;" parent="ASx-Sw1Rj-6cgDWwaIsj-13" vertex="1">
                    <mxGeometry x="737" width="723" height="86" as="geometry">
                        <mxRectangle width="723" height="86" as="alternateBounds"/>
                    </mxGeometry>
                </mxCell>
                <mxCell id="ASx-Sw1Rj-6cgDWwaIsj-17" value="" style="shape=partialRectangle;html=1;whiteSpace=wrap;collapsible=0;dropTarget=0;pointerEvents=0;fillColor=none;top=0;left=0;bottom=0;right=0;points=[[0,0.5],[1,0.5]];portConstraint=eastwest;fontSize=25;" parent="ASx-Sw1Rj-6cgDWwaIsj-12" vertex="1">
                    <mxGeometry y="232" width="1460" height="94" as="geometry"/>
                </mxCell>
                <mxCell id="ASx-Sw1Rj-6cgDWwaIsj-18" value="&lt;span&gt;todo&lt;/span&gt;" style="shape=partialRectangle;html=1;whiteSpace=wrap;connectable=0;fillColor=none;top=0;left=0;bottom=0;right=0;overflow=hidden;pointerEvents=1;fontSize=25;" parent="ASx-Sw1Rj-6cgDWwaIsj-17" vertex="1">
                    <mxGeometry width="203" height="94" as="geometry">
                        <mxRectangle width="203" height="94" as="alternateBounds"/>
                    </mxGeometry>
                </mxCell>
                <mxCell id="ASx-Sw1Rj-6cgDWwaIsj-19" value="&lt;span&gt;Query-todoCreated&lt;/span&gt;" style="shape=partialRectangle;html=1;whiteSpace=wrap;connectable=0;fillColor=none;top=0;left=0;bottom=0;right=0;overflow=hidden;pointerEvents=1;fontSize=25;" parent="ASx-Sw1Rj-6cgDWwaIsj-17" vertex="1">
                    <mxGeometry x="203" width="283" height="94" as="geometry">
                        <mxRectangle width="283" height="94" as="alternateBounds"/>
                    </mxGeometry>
                </mxCell>
                <mxCell id="ASx-Sw1Rj-6cgDWwaIsj-20" value="query" style="shape=partialRectangle;html=1;whiteSpace=wrap;connectable=0;fillColor=none;top=0;left=0;bottom=0;right=0;overflow=hidden;pointerEvents=1;fontSize=25;" parent="ASx-Sw1Rj-6cgDWwaIsj-17" vertex="1">
                    <mxGeometry x="486" width="251" height="94" as="geometry">
                        <mxRectangle width="251" height="94" as="alternateBounds"/>
                    </mxGeometry>
                </mxCell>
                <mxCell id="ASx-Sw1Rj-6cgDWwaIsj-233" value="store all todo" style="shape=partialRectangle;html=1;whiteSpace=wrap;connectable=0;fillColor=none;top=0;left=0;bottom=0;right=0;overflow=hidden;pointerEvents=1;fontSize=25;" parent="ASx-Sw1Rj-6cgDWwaIsj-17" vertex="1">
                    <mxGeometry x="737" width="723" height="94" as="geometry">
                        <mxRectangle width="723" height="94" as="alternateBounds"/>
                    </mxGeometry>
                </mxCell>
                <mxCell id="ASx-Sw1Rj-6cgDWwaIsj-21" value="" style="shape=partialRectangle;html=1;whiteSpace=wrap;collapsible=0;dropTarget=0;pointerEvents=0;fillColor=none;top=0;left=0;bottom=0;right=0;points=[[0,0.5],[1,0.5]];portConstraint=eastwest;fontSize=25;" parent="ASx-Sw1Rj-6cgDWwaIsj-12" vertex="1">
                    <mxGeometry y="326" width="1460" height="92" as="geometry"/>
                </mxCell>
                <mxCell id="ASx-Sw1Rj-6cgDWwaIsj-22" value="&lt;span&gt;todo&lt;/span&gt;" style="shape=partialRectangle;html=1;whiteSpace=wrap;connectable=0;fillColor=none;top=0;left=0;bottom=0;right=0;overflow=hidden;pointerEvents=1;fontSize=25;" parent="ASx-Sw1Rj-6cgDWwaIsj-21" vertex="1">
                    <mxGeometry width="203" height="92" as="geometry">
                        <mxRectangle width="203" height="92" as="alternateBounds"/>
                    </mxGeometry>
                </mxCell>
                <mxCell id="ASx-Sw1Rj-6cgDWwaIsj-23" value="&lt;span style=&quot;color: rgb(51 , 51 , 51)&quot;&gt;&lt;font style=&quot;font-size: 25px&quot;&gt;Query-todoUpdated&lt;/font&gt;&lt;/span&gt;" style="shape=partialRectangle;html=1;whiteSpace=wrap;connectable=0;fillColor=none;top=0;left=0;bottom=0;right=0;overflow=hidden;pointerEvents=1;fontSize=25;" parent="ASx-Sw1Rj-6cgDWwaIsj-21" vertex="1">
                    <mxGeometry x="203" width="283" height="92" as="geometry">
                        <mxRectangle width="283" height="92" as="alternateBounds"/>
                    </mxGeometry>
                </mxCell>
                <mxCell id="ASx-Sw1Rj-6cgDWwaIsj-24" value="query" style="shape=partialRectangle;html=1;whiteSpace=wrap;connectable=0;fillColor=none;top=0;left=0;bottom=0;right=0;overflow=hidden;pointerEvents=1;fontSize=25;" parent="ASx-Sw1Rj-6cgDWwaIsj-21" vertex="1">
                    <mxGeometry x="486" width="251" height="92" as="geometry">
                        <mxRectangle width="251" height="92" as="alternateBounds"/>
                    </mxGeometry>
                </mxCell>
                <mxCell id="ASx-Sw1Rj-6cgDWwaIsj-234" value="update the todo content" style="shape=partialRectangle;html=1;whiteSpace=wrap;connectable=0;fillColor=none;top=0;left=0;bottom=0;right=0;overflow=hidden;pointerEvents=1;fontSize=25;" parent="ASx-Sw1Rj-6cgDWwaIsj-21" vertex="1">
                    <mxGeometry x="737" width="723" height="92" as="geometry">
                        <mxRectangle width="723" height="92" as="alternateBounds"/>
                    </mxGeometry>
                </mxCell>
                <mxCell id="9jHN7eZmZL9FeWSoARdx-21" style="shape=partialRectangle;html=1;whiteSpace=wrap;collapsible=0;dropTarget=0;pointerEvents=0;fillColor=none;top=0;left=0;bottom=0;right=0;points=[[0,0.5],[1,0.5]];portConstraint=eastwest;fontSize=25;" parent="ASx-Sw1Rj-6cgDWwaIsj-12" vertex="1">
                    <mxGeometry y="418" width="1460" height="93" as="geometry"/>
                </mxCell>
                <mxCell id="9jHN7eZmZL9FeWSoARdx-22" value="&lt;span&gt;todo&lt;/span&gt;" style="shape=partialRectangle;html=1;whiteSpace=wrap;connectable=0;fillColor=none;top=0;left=0;bottom=0;right=0;overflow=hidden;pointerEvents=1;fontSize=25;" parent="9jHN7eZmZL9FeWSoARdx-21" vertex="1">
                    <mxGeometry width="203" height="93" as="geometry">
                        <mxRectangle width="203" height="93" as="alternateBounds"/>
                    </mxGeometry>
                </mxCell>
                <mxCell id="9jHN7eZmZL9FeWSoARdx-23" value="Comment-todoDeleted" style="shape=partialRectangle;html=1;whiteSpace=wrap;connectable=0;fillColor=none;top=0;left=0;bottom=0;right=0;overflow=hidden;pointerEvents=1;fontSize=25;" parent="9jHN7eZmZL9FeWSoARdx-21" vertex="1">
                    <mxGeometry x="203" width="283" height="93" as="geometry">
                        <mxRectangle width="283" height="93" as="alternateBounds"/>
                    </mxGeometry>
                </mxCell>
                <mxCell id="9jHN7eZmZL9FeWSoARdx-24" value="comment" style="shape=partialRectangle;html=1;whiteSpace=wrap;connectable=0;fillColor=none;top=0;left=0;bottom=0;right=0;overflow=hidden;pointerEvents=1;fontSize=25;" parent="9jHN7eZmZL9FeWSoARdx-21" vertex="1">
                    <mxGeometry x="486" width="251" height="93" as="geometry">
                        <mxRectangle width="251" height="93" as="alternateBounds"/>
                    </mxGeometry>
                </mxCell>
                <mxCell id="9jHN7eZmZL9FeWSoARdx-25" value="delete todo and all comment" style="shape=partialRectangle;html=1;whiteSpace=wrap;connectable=0;fillColor=none;top=0;left=0;bottom=0;right=0;overflow=hidden;pointerEvents=1;fontSize=25;" parent="9jHN7eZmZL9FeWSoARdx-21" vertex="1">
                    <mxGeometry x="737" width="723" height="93" as="geometry">
                        <mxRectangle width="723" height="93" as="alternateBounds"/>
                    </mxGeometry>
                </mxCell>
                <mxCell id="9jHN7eZmZL9FeWSoARdx-26" style="shape=partialRectangle;html=1;whiteSpace=wrap;collapsible=0;dropTarget=0;pointerEvents=0;fillColor=none;top=0;left=0;bottom=0;right=0;points=[[0,0.5],[1,0.5]];portConstraint=eastwest;fontSize=25;" parent="ASx-Sw1Rj-6cgDWwaIsj-12" vertex="1">
                    <mxGeometry y="511" width="1460" height="92" as="geometry"/>
                </mxCell>
                <mxCell id="9jHN7eZmZL9FeWSoARdx-27" value="&lt;span&gt;todo&lt;/span&gt;" style="shape=partialRectangle;html=1;whiteSpace=wrap;connectable=0;fillColor=none;top=0;left=0;bottom=0;right=0;overflow=hidden;pointerEvents=1;fontSize=25;" parent="9jHN7eZmZL9FeWSoARdx-26" vertex="1">
                    <mxGeometry width="203" height="92" as="geometry">
                        <mxRectangle width="203" height="92" as="alternateBounds"/>
                    </mxGeometry>
                </mxCell>
                <mxCell id="9jHN7eZmZL9FeWSoARdx-28" value="&lt;span&gt;Query-todoDeleted&lt;/span&gt;" style="shape=partialRectangle;html=1;whiteSpace=wrap;connectable=0;fillColor=none;top=0;left=0;bottom=0;right=0;overflow=hidden;pointerEvents=1;fontSize=25;" parent="9jHN7eZmZL9FeWSoARdx-26" vertex="1">
                    <mxGeometry x="203" width="283" height="92" as="geometry">
                        <mxRectangle width="283" height="92" as="alternateBounds"/>
                    </mxGeometry>
                </mxCell>
                <mxCell id="9jHN7eZmZL9FeWSoARdx-29" value="query" style="shape=partialRectangle;html=1;whiteSpace=wrap;connectable=0;fillColor=none;top=0;left=0;bottom=0;right=0;overflow=hidden;pointerEvents=1;fontSize=25;" parent="9jHN7eZmZL9FeWSoARdx-26" vertex="1">
                    <mxGeometry x="486" width="251" height="92" as="geometry">
                        <mxRectangle width="251" height="92" as="alternateBounds"/>
                    </mxGeometry>
                </mxCell>
                <mxCell id="9jHN7eZmZL9FeWSoARdx-30" value="delete todo and all comment" style="shape=partialRectangle;html=1;whiteSpace=wrap;connectable=0;fillColor=none;top=0;left=0;bottom=0;right=0;overflow=hidden;pointerEvents=1;fontSize=25;" parent="9jHN7eZmZL9FeWSoARdx-26" vertex="1">
                    <mxGeometry x="737" width="723" height="92" as="geometry">
                        <mxRectangle width="723" height="92" as="alternateBounds"/>
                    </mxGeometry>
                </mxCell>
                <mxCell id="9jHN7eZmZL9FeWSoARdx-31" style="shape=partialRectangle;html=1;whiteSpace=wrap;collapsible=0;dropTarget=0;pointerEvents=0;fillColor=none;top=0;left=0;bottom=0;right=0;points=[[0,0.5],[1,0.5]];portConstraint=eastwest;fontSize=25;" parent="ASx-Sw1Rj-6cgDWwaIsj-12" vertex="1">
                    <mxGeometry y="603" width="1460" height="92" as="geometry"/>
                </mxCell>
                <mxCell id="9jHN7eZmZL9FeWSoARdx-32" value="comment" style="shape=partialRectangle;html=1;whiteSpace=wrap;connectable=0;fillColor=none;top=0;left=0;bottom=0;right=0;overflow=hidden;pointerEvents=1;fontSize=25;" parent="9jHN7eZmZL9FeWSoARdx-31" vertex="1">
                    <mxGeometry width="203" height="92" as="geometry">
                        <mxRectangle width="203" height="92" as="alternateBounds"/>
                    </mxGeometry>
                </mxCell>
                <mxCell id="9jHN7eZmZL9FeWSoARdx-33" value="Query-commentCreated" style="shape=partialRectangle;html=1;whiteSpace=wrap;connectable=0;fillColor=none;top=0;left=0;bottom=0;right=0;overflow=hidden;pointerEvents=1;fontSize=25;" parent="9jHN7eZmZL9FeWSoARdx-31" vertex="1">
                    <mxGeometry x="203" width="283" height="92" as="geometry">
                        <mxRectangle width="283" height="92" as="alternateBounds"/>
                    </mxGeometry>
                </mxCell>
                <mxCell id="9jHN7eZmZL9FeWSoARdx-34" value="query" style="shape=partialRectangle;html=1;whiteSpace=wrap;connectable=0;fillColor=none;top=0;left=0;bottom=0;right=0;overflow=hidden;pointerEvents=1;fontSize=25;" parent="9jHN7eZmZL9FeWSoARdx-31" vertex="1">
                    <mxGeometry x="486" width="251" height="92" as="geometry">
                        <mxRectangle width="251" height="92" as="alternateBounds"/>
                    </mxGeometry>
                </mxCell>
                <mxCell id="9jHN7eZmZL9FeWSoARdx-35" value="add comment in todo" style="shape=partialRectangle;html=1;whiteSpace=wrap;connectable=0;fillColor=none;top=0;left=0;bottom=0;right=0;overflow=hidden;pointerEvents=1;fontSize=25;" parent="9jHN7eZmZL9FeWSoARdx-31" vertex="1">
                    <mxGeometry x="737" width="723" height="92" as="geometry">
                        <mxRectangle width="723" height="92" as="alternateBounds"/>
                    </mxGeometry>
                </mxCell>
                <mxCell id="9jHN7eZmZL9FeWSoARdx-36" style="shape=partialRectangle;html=1;whiteSpace=wrap;collapsible=0;dropTarget=0;pointerEvents=0;fillColor=none;top=0;left=0;bottom=0;right=0;points=[[0,0.5],[1,0.5]];portConstraint=eastwest;fontSize=25;" parent="ASx-Sw1Rj-6cgDWwaIsj-12" vertex="1">
                    <mxGeometry y="695" width="1460" height="92" as="geometry"/>
                </mxCell>
                <mxCell id="9jHN7eZmZL9FeWSoARdx-37" value="&lt;span&gt;comment&lt;/span&gt;" style="shape=partialRectangle;html=1;whiteSpace=wrap;connectable=0;fillColor=none;top=0;left=0;bottom=0;right=0;overflow=hidden;pointerEvents=1;fontSize=25;" parent="9jHN7eZmZL9FeWSoARdx-36" vertex="1">
                    <mxGeometry width="203" height="92" as="geometry">
                        <mxRectangle width="203" height="92" as="alternateBounds"/>
                    </mxGeometry>
                </mxCell>
                <mxCell id="9jHN7eZmZL9FeWSoARdx-38" value="&lt;span&gt;Query-commentDeleted&lt;/span&gt;" style="shape=partialRectangle;html=1;whiteSpace=wrap;connectable=0;fillColor=none;top=0;left=0;bottom=0;right=0;overflow=hidden;pointerEvents=1;fontSize=25;" parent="9jHN7eZmZL9FeWSoARdx-36" vertex="1">
                    <mxGeometry x="203" width="283" height="92" as="geometry">
                        <mxRectangle width="283" height="92" as="alternateBounds"/>
                    </mxGeometry>
                </mxCell>
                <mxCell id="9jHN7eZmZL9FeWSoARdx-39" value="query" style="shape=partialRectangle;html=1;whiteSpace=wrap;connectable=0;fillColor=none;top=0;left=0;bottom=0;right=0;overflow=hidden;pointerEvents=1;fontSize=25;" parent="9jHN7eZmZL9FeWSoARdx-36" vertex="1">
                    <mxGeometry x="486" width="251" height="92" as="geometry">
                        <mxRectangle width="251" height="92" as="alternateBounds"/>
                    </mxGeometry>
                </mxCell>
                <mxCell id="9jHN7eZmZL9FeWSoARdx-40" value="delete comment in todo" style="shape=partialRectangle;html=1;whiteSpace=wrap;connectable=0;fillColor=none;top=0;left=0;bottom=0;right=0;overflow=hidden;pointerEvents=1;fontSize=25;" parent="9jHN7eZmZL9FeWSoARdx-36" vertex="1">
                    <mxGeometry x="737" width="723" height="92" as="geometry">
                        <mxRectangle width="723" height="92" as="alternateBounds"/>
                    </mxGeometry>
                </mxCell>
                <mxCell id="9jHN7eZmZL9FeWSoARdx-41" style="shape=partialRectangle;html=1;whiteSpace=wrap;collapsible=0;dropTarget=0;pointerEvents=0;fillColor=none;top=0;left=0;bottom=0;right=0;points=[[0,0.5],[1,0.5]];portConstraint=eastwest;fontSize=25;" parent="ASx-Sw1Rj-6cgDWwaIsj-12" vertex="1">
                    <mxGeometry y="787" width="1460" height="93" as="geometry"/>
                </mxCell>
                <mxCell id="9jHN7eZmZL9FeWSoARdx-42" style="shape=partialRectangle;html=1;whiteSpace=wrap;connectable=0;fillColor=none;top=0;left=0;bottom=0;right=0;overflow=hidden;pointerEvents=1;fontSize=25;" parent="9jHN7eZmZL9FeWSoARdx-41" vertex="1">
                    <mxGeometry width="203" height="93" as="geometry">
                        <mxRectangle width="203" height="93" as="alternateBounds"/>
                    </mxGeometry>
                </mxCell>
                <mxCell id="9jHN7eZmZL9FeWSoARdx-43" style="shape=partialRectangle;html=1;whiteSpace=wrap;connectable=0;fillColor=none;top=0;left=0;bottom=0;right=0;overflow=hidden;pointerEvents=1;fontSize=25;" parent="9jHN7eZmZL9FeWSoARdx-41" vertex="1">
                    <mxGeometry x="203" width="283" height="93" as="geometry">
                        <mxRectangle width="283" height="93" as="alternateBounds"/>
                    </mxGeometry>
                </mxCell>
                <mxCell id="9jHN7eZmZL9FeWSoARdx-44" style="shape=partialRectangle;html=1;whiteSpace=wrap;connectable=0;fillColor=none;top=0;left=0;bottom=0;right=0;overflow=hidden;pointerEvents=1;fontSize=25;" parent="9jHN7eZmZL9FeWSoARdx-41" vertex="1">
                    <mxGeometry x="486" width="251" height="93" as="geometry">
                        <mxRectangle width="251" height="93" as="alternateBounds"/>
                    </mxGeometry>
                </mxCell>
                <mxCell id="9jHN7eZmZL9FeWSoARdx-45" style="shape=partialRectangle;html=1;whiteSpace=wrap;connectable=0;fillColor=none;top=0;left=0;bottom=0;right=0;overflow=hidden;pointerEvents=1;fontSize=25;" parent="9jHN7eZmZL9FeWSoARdx-41" vertex="1">
                    <mxGeometry x="737" width="723" height="93" as="geometry">
                        <mxRectangle width="723" height="93" as="alternateBounds"/>
                    </mxGeometry>
                </mxCell>
            </root>
        </mxGraphModel>
    </diagram>
    <diagram id="l4DttmXqJGYjCuT0cDf_" name="第2頁">
        <mxGraphModel dx="1204" dy="585" grid="1" gridSize="10" guides="1" tooltips="1" connect="1" arrows="1" fold="1" page="1" pageScale="1" pageWidth="827" pageHeight="1169" math="0" shadow="0">
            <root>
                <mxCell id="vjYbMJ_OplL_gI4CCo9B-0"/>
                <mxCell id="vjYbMJ_OplL_gI4CCo9B-1" parent="vjYbMJ_OplL_gI4CCo9B-0"/>
            </root>
        </mxGraphModel>
    </diagram>
</mxfile>